/* XPM */
static char *_1916e88d9004e08934e28454345f189[] = {
/* columns rows colors chars-per-pixel */
"32 32 103 2 ",
"   c #1B1E1F",
".  c #1C1C1F",
"X  c #1D1E1F",
"o  c #211F1E",
"O  c #221F1F",
"+  c #1F201F",
"@  c #21201F",
"#  c #24201F",
"$  c #28231F",
"%  c #2D261F",
"&  c #1A1D20",
"*  c #1E1F21",
"=  c #211F21",
"-  c #1F2021",
";  c #202120",
":  c #222222",
">  c #252222",
",  c #292321",
"<  c #2B2522",
"1  c #2E2620",
"2  c #302721",
"3  c #332922",
"4  c #362A21",
"5  c #342822",
"6  c #352B22",
"7  c #3A2C21",
"8  c #423023",
"9  c #463223",
"0  c #453324",
"q  c #493423",
"w  c #4D3725",
"e  c #4F3624",
"r  c #523824",
"t  c #5A3D27",
"y  c #5D3D24",
"u  c #593B28",
"i  c #614026",
"p  c #614127",
"a  c #624027",
"s  c #654428",
"d  c #754928",
"f  c #744A2A",
"g  c #794B29",
"h  c #7A4D29",
"j  c #794D2B",
"k  c #825028",
"l  c #855229",
"z  c #8A562C",
"x  c #925A2C",
"c  c #935A2D",
"v  c #945A2D",
"b  c #9C5D2B",
"n  c #9A5C2D",
"m  c #9F612E",
"M  c #A1612F",
"N  c #A7632E",
"B  c #A4662F",
"V  c #AB642D",
"C  c #A8662F",
"Z  c #B1682E",
"A  c #BF6E2F",
"S  c #A96530",
"D  c #AF6930",
"F  c #B06931",
"G  c #B56A30",
"H  c #B76B31",
"J  c #B96F31",
"K  c #BC6E32",
"L  c #BE7031",
"P  c #C37232",
"I  c #C47331",
"U  c #C67331",
"Y  c #C67332",
"T  c #C67431",
"R  c #CE7733",
"E  c #CF7935",
"W  c #D07933",
"Q  c #D47B33",
"!  c #D07935",
"~  c #D47B36",
"^  c #D77C35",
"/  c #D97C35",
"(  c #D87D35",
")  c #D87E37",
"_  c #DC7C35",
"`  c #DD7E34",
"'  c #DC8036",
"]  c #E38236",
"[  c #E68336",
"{  c #E78536",
"}  c #E88436",
"|  c #EB8636",
" . c #EC8637",
".. c #EF8736",
"X. c #EC8837",
"o. c #E38438",
"O. c #F38936",
"+. c #F58934",
"@. c #F48935",
"#. c #F48A37",
"$. c #F48C37",
"%. c #F38B38",
"&. c #F28B39",
/* pixels */
"; ; ; = + @ ; ; ; ; ; ; = ; : ; : ; ; = = - ; @ - ; ; ; = = ; - ",
"; ; @ - ; = ; ; ; ; ; = = - ; ; = = = ; ; ; = - ; ; ; ; ; ; ; = ",
"; = ; = ; = ; ; = @ ; * ; = ; ; = ; ; = @ @ = ; ; ; * ; ; * = ; ",
"; ; ; ; = ; ; = ; o = = = ; ; = ; * ; * = ; @ = = = = - = = ; ; ",
"= : ; > ; ; > ; = ; = ; ; = ; ; = ; ; = ; o ; ; = ; = ; ; ; ; ; ",
"; ; : ; ; ; ; ; > ; ; ; ; ; ; ; ; ; ; ; ; ; ; + ; ; ; ; ; ; ; > ",
": ; ; ; ; ; ; ; ; ; ; ; = ; ; ; ; ; = * ; ; = * ; ; ; = = : ; ; ",
"= : ; ; = = < 5 > ; ; ; 1 2 + - ; = 3 1 = ; 3 < ; = 2 2 ; ; = : ",
"; : = ; ; * M ~ 9 o ; X Z E % - @ q ^ C X 3 W k = 0 ! B ; = ; ; ",
": ; ; : ; , ( #.h * ; X Y #.h - X m O.L + 5  .x = b #.u = ; ; ; ",
"; : : = ; 8 O.O.Z * ; * Y O.E ; 3 ] O.K   3  .x 5 $.K = = : ; > ",
": ; ; = + h &.Y { o * & Y O.O.y h O.O.L X 3 ..x S X.0 ; = ; : ; ",
"; : ; = * F ( k &.q - - Y [  .Z R ! { K * 2  .J | A * ; * ; ; > ",
"; = ; ; = ] V r #.k *   U ( N ..O.k [ L   3 O. .O._ 1 - ; ; : ; ",
": = ; * q #.g 5 ] H X - T ` e ..| 7 [ L - 3 X.O.{ &.a = = ; ; : ",
"; : : = h #.Y G { ' % & T ` @ U D X | K   5  .[ i #.F * = : ; = ",
"; ; + @ Z $.#.#.#.O.w   Y ' = s u o | K & 5 | b X W | % ; ; ; ; ",
"; ; + # _ ! h h n O.l   Y ` @ > X o [ P * 3  .v * l #.d - - ; ; ",
"; ; + 9 $.v & * 3 O.L   T ` = = @ - [ K & 5  .v = 8  .L = ; > ; ",
"> ; - f | a - = X E ^ # J W ; = - @ ( D ; 4 ( z * X Y ' 7 = ; ; ",
"; ; ; < 3 > > = - % 5 @ 1 5 ; ; @ ; 3 1 - ; 5 1 * ; 3 5 > = ; ; ",
": ; = ; ; = ; ; + - @ ; * = ; ; ; @ = ; @ = ; = @ = - ; = ; ; ; ",
"; ; = - ; ; ; > ; ; ; ; = ; ; ; ; ; ; = ; ; = ; ; ; = = ; ; ; ; ",
"> ; ; ; ; : ; ; ; ; ; ; : ; : = ; ; > ; ; ; ; ; ; ; > ; ; : ; : ",
"; ; : ; : : ; : ; : = ; : = ; : : ; = : ; : : ; ; ; ; : ; ; : ; ",
"; ; ; = = ; ; = : ; ; : : ; : ; = : ; ; : ; = : ; > : : : = = : ",
"> = ; : ; : : ; : = = : ; ; : = ; : ; : = ; = ; ; ; ; ; : ; ; : ",
"; : : ; : ; = : ; : ; ; : = ; : : ; = : ; : : ; ; ; ; > ; = : ; ",
"; = : ; = ; : = : ; : : : ; ; : = ; : = : ; : : = : ; = : : ; : ",
": : ; = ; : : ; ; = = ; ; = : ; ; : : ; ; : = ; ; ; : : = ; ; = ",
"; : ; : : ; ; : ; : ; ; = ; ; : : ; ; = = ; ; : : ; : ; ; : : = ",
"; = : ; = : ; = : ; : = ; = = ; = : ; : ; = : ; = : ; = : ; ; : "
};
