/* XPM */
static char *_494a1bee54549d9ed25038293139a06[] = {
/* columns rows colors chars-per-pixel */
"16 16 49 1 ",
"  c #161B1E",
". c #21201F",
"X c #1F2020",
"o c #202020",
"O c gray13",
"+ c #242220",
"@ c #262321",
"# c #2B2421",
"$ c #2B2521",
"% c #2C2621",
"& c #2D2721",
"* c #342A22",
"= c #3A2D23",
"- c #413123",
"; c #443224",
": c #463324",
"> c #4E3826",
", c #553B26",
"< c #644228",
"1 c #734B29",
"2 c #784B29",
"3 c #784F2B",
"4 c #85522B",
"5 c #84542B",
"6 c #8D572B",
"7 c #91572B",
"8 c #A2612E",
"9 c #AB672F",
"0 c #AF6930",
"q c #B06A30",
"w c #B56F31",
"e c #BB6F31",
"r c #BF7132",
"t c #C07130",
"y c #C37332",
"u c #C47633",
"i c #C67734",
"p c #C87532",
"a c #C97632",
"s c #C87633",
"d c #CA7732",
"f c #CD7834",
"g c #D07933",
"h c #D47A33",
"j c #D67C33",
"k c #DD7F35",
"l c #E28235",
"z c #E58336",
"x c #EC8636",
/* pixels */
"oooooooooooooooo",
"oooooooooooooooo",
"ooooooXXoooXoooo",
"ooo$oo$oo%o$o&oo",
"ooos-@s*;y$q;qoo",
"oo:z1@h78g%eq>oo",
"+o160@sfyp%zk.oo",
"oo95j$s42s%xf,..",
"oogrl;d$%f#y<8oo",
"o=w 53iXoi%w%g+o",
"o@@Xo@@oo+o@o+oo",
"ooooXXooXooooooo",
"o@ooOOOOOOOOo$oo",
"ooOOOOOOOOOOooOO",
"OOOOOooOOooOOOOo",
"OOOOOoooOOOOOOOO"
};
