/* XPM */
static char *_b889527a17940eee58fa4f9316ac216[] = {
/* columns rows colors chars-per-pixel */
"64 64 95 2 ",
"   c #1E1A17",
".  c #1F1E1E",
"X  c #251D15",
"o  c #211F1D",
"O  c #291F18",
"+  c #1F201F",
"@  c #21201E",
"#  c #2B221C",
"$  c #31251D",
"%  c #36291E",
"&  c #3C2A1E",
"*  c #1F1F21",
"=  c #211F21",
"-  c #1E2022",
";  c #212121",
":  c #2A2521",
">  c #292929",
",  c #342720",
"<  c #332922",
"1  c #3C2D23",
"2  c #422D1D",
"3  c #4B2F1F",
"4  c #4D331F",
"5  c #58351C",
"6  c #603A1F",
"7  c #412E22",
"8  c #453222",
"9  c #4D3422",
"0  c #523622",
"q  c #543924",
"w  c #5B3C24",
"e  c #503828",
"r  c #623E29",
"t  c #664226",
"y  c #6B4323",
"u  c #66452D",
"i  c #6E482C",
"p  c #764620",
"a  c #764923",
"s  c #784825",
"d  c #764C2C",
"f  c #7B4C2A",
"g  c #844F2B",
"h  c #855027",
"j  c #84512B",
"k  c #8B552A",
"l  c #8F592D",
"z  c #905428",
"x  c #94592B",
"c  c #9A5C2D",
"v  c #8B5830",
"b  c #995E30",
"n  c #A15E2D",
"m  c #9B6035",
"M  c #A3622E",
"N  c #AA642D",
"B  c #B1682F",
"V  c #A46434",
"C  c #A86532",
"Z  c #AE6836",
"A  c #B56C30",
"S  c #BB6E32",
"D  c #BE7134",
"F  c #B6703B",
"G  c #BD743A",
"H  c #C9732F",
"J  c #D7782E",
"K  c #C57335",
"L  c #C97432",
"P  c #CF7831",
"I  c #C77739",
"U  c #C87638",
"Y  c #C6793E",
"T  c #D47B36",
"R  c #DA7D34",
"E  c #D57E39",
"W  c #D97E3B",
"Q  c #D07D41",
"!  c #DC8136",
"~  c #D6823D",
"^  c #DC823B",
"/  c #E38236",
"(  c #EC8636",
")  c #EF8A37",
"_  c #E3843A",
"`  c #E9873A",
"'  c #E3883C",
"]  c #ED8A3A",
"[  c #F38734",
"{  c #F88731",
"}  c #F28935",
"|  c #F18939",
" . c #D38142",
".. c #DC8442",
"X. c #E08441",
/* pixels */
"; ; ; ; ; ; ; ; ; @ : @ ; ; ; ; ; ; ; ; ; ; ; ; ; ; ; ; ; ; ; ; ; ; ; ; ; ; ; ; ; ; ; = ; ; ; @ ; ; ; ; ; ; ; ; ; ; - ; ; ; ; ; ",
"; . ; ; - ; @ ; ; - ; @ - ; ; ; ; ; ; ; ; ; ; ; ; ; ; ; ; ; ; ; ; ; ; ; ; ; @ ; ; ; * ; ; ; ; ; ; ; ; ; ; ; ; ; ; ; ; ; - ; ; ; ",
"; - @ @ @ + @ ; ; ; ; ; ; ; ; ; ; ; ; ; ; ; ; ; ; - ; ; ; ; ; ; ; ; ; ; ; ; ; ; ; ; ; ; ; ; ; ; ; ; ; ; ; ; ; ; ; ; ; ; ; ; ; ; ",
"@ - - - ; @ - @ ; @ - ; ; ; ; ; ; ; ; ; ; ; ; ; ; ; ; ; ; ; ; ; ; ; ; ; ; ; ; ; ; ; ; @ o - ; ; ; ; ; ; ; ; ; ; ; ; ; ; ; = ; - ",
"; - @ @ @ + @ - - ; - ; ; ; ; ; @ @ - ; @ ; ; @ ; ; - @ = - ; ; ; ; ; ; ; ; ; ; ; = ; * @ @ ; - ; ; ; = ; ; + = @ - o - o - @ . ",
"; ; ; - - @ ; ; @ ; @ ; ; ; ; ; ; - o - + - @ @ @ - @ = - @ ; - ; ; ; ; ; ; ; ; @ @ = ; ; - @ @ - ; ; = ; * @ + - @ - @ ; ; ; ; ",
"; ; ; ; ; ; ; ; - @ ; ; ; ; ; ; @ ; @ o - - - - + @ ; ; @ = = ; ; ; - ; ; @ @ ; o o o @ ; = @ = @ ; = = o - - - @ ; - ; ; ; ; ; ",
"; ; ; ; ; ; ; ; ; @ ; ; ; ; ; ; - + @ o o = + + - - ; o @ ; - ; ; - - - - @ @ ; - - * ; - + @ @ - - ; = * o @ - @ * o - @ - ; ; ",
"; ; ; ; ; ; ; ; ; ; ; ; ; ; ; ; ; ; ; - @ - ; @ @ @ ; ; - + @ @ - @ @ o o = @ - @ @ @ @ + - ; - - o @ ; ; - - @ - ; ; ; ; ; ; ; ",
"; ; ; ; ; ; ; ; ; ; ; ; ; ; ; ; ; ; ; ; ; ; ; ; - ; - ; ; @ - ; ; ; - ; ; ; ; ; ; ; ; - ; ; @ ; ; ; - ; ; ; @ - ; ; ; ; ; ; ; ; ",
"; ; ; : ; ; ; ; ; ; ; ; ; ; ; ; ; ; ; ; ; ; ; ; ; ; ; ; ; ; ; ; ; ; ; ; ; ; ; ; ; ; ; ; ; ; ; ; ; ; ; ; ; ; ; ; ; ; ; ; ; ; ; ; ",
"; ; ; ; ; ; ; ; ; ; ; ; ; ; ; ; ; ; ; ; ; ; ; ; ; ; ; ; ; ; ; ; ; ; ; ; ; ; ; ; ; ; ; ; ; ; ; ; ; ; ; ; ; ; ; ; ; ; ; ; ; ; ; ; ",
"; ; ; ; ; ; ; ; ; ; ; ; ; ; ; ; ; ; ; ; ; ; ; ; ; ; ; ; ; ; ; ; ; ; ; ; ; ; ; ; ; ; ; ; ; ; ; ; ; ; ; ; ; ; ; ; ; ; ; ; ; ; ; ; ",
"; ; ; ; ; ; ; ; ; ; ; ; ; ; ; ; ; ; ; ; ; ; ; @ @ ; + ; ; ; ; ; ; ; ; ; ; ; - ; ; ; ; @ - ; ; @ ; ; ; ; - @ ; @ ; ; ; ; ; ; ; ; ",
"; ; ; ; ; ; ; ; ; ; @ - ; + ; ; - ; ; ; ; ; ; - - ; ; @ + ; ; ; ; ; ; ; . . = ; ; ; - ; @ ; ; + ; ; ; ; @ . - o ; ; ; ; ; ; ; ; ",
"; ; ; ; ; ; ; ; ; ; - @ o o     @ ; ; ; ; ; ; ; @       - @ ; ; ; ; ; @ o     o ; @ @ -     o . - o ; * o     o ; - ; ; ; - : ; ",
"; ; ; ; ; ; ; ; ; ; - ; w ..W ..w = ; @ ; ; ; - v ^ ~ G # ; ; ; ; @ . w X...^ f - @ - 1 ! ~ ~ 1 ; ; o % Q ^ ~ F : - ; ; ; ; ; ; ",
"; ; ; ; ; ; > ; ; ; o - g } | { k - o ; ; ; ; + x } } | w ; ; ; ; = o V { } | h ; - ; 2 ( } ( & ; = . l } } } y + ; ; ; ; ; ; ; ",
"; ; ; ; ; ; - - ; ; o . S } | } S = ; ; ; ; ; . l } } } V @ ; @ - . & ^ } } ] j ; - - 7 ( ) ` 1 ; o % ~ { ] K ; ; - ; ; ; ; ; ; ",
"; ; : - ; ; ; ; ; - * $ ^ } } [ ! < = - ; ; ; - x } } } _ & - @ @ * f } ] } } j ; @ @ 2 ( ) ( & = ; j } | ( r = ; @ ; ; ; ; ; ; ",
"; ; ; ; ; ; ; ; ; @ + 0 ) ] } ) } e o - ; ; ; ; x } } } } j - @ ; o U } } } } j - - @ 8 ( } ( 1 = $ ~ } } D = ; - ; ; ; ; ; ; ; ",
"; ; ; ; ; ; ; ; - @ * j } } { ] { g - @ ; ; ; . x ) } } } E # ; - 0 | | | } } j ; @ @ 1 ( } ( 1 * z } { ] 4 * ; ; ; ; ; ; ; ; ; ",
"; ; ; ; ; ; ; ; - ; @ S } ] K | ) K o ; ; ; ; * x ) } } } } y o o C } } } } } g ; ; @ 7 ) } ` 1 & ^ } } m ; ; o ; ; ; ; ; ; ; ; ",
"; ; ; ; ; ; ; ; + @ $ _ | ` p } ] ` $ @ + ; ; * x | [ } } } D o 1 / | } ) } ) g - - ; 7 ( ( ( 1 x } | ! 1 - ; ; ; ; ; : ; ; ; ; ",
"; ; ; ; ; ; ; ; + o q | ] T 2 ( ] | w @ * - ; . x } } ] [ [ ` 9 f } } R / } } j * ; = 7 | [ ( 5 ' } } x - - ; ; ; ; ; ; ; ; ; ; ",
"; ; ; ; ; ; ; - @ * j { ) N @ P ) } l - = ; ; = x | ] J W } | c P | { x E } ) j ; + = 7 ( ( _ B { ] { d @ ; ; ; ; ; ; ; ; ; ; ; ",
"; ; ; ; ; ; ; - @ + D } } a + M } } K o o ; ; - x | | H j | [ | | [ ` 3 E } ) j ; = = 1 ( } ) ] } | { F o @ ; ; ; ; ; ; ; ; ; ; ",
": ; ; ; ; ; ; @ @ % ^ ] [ 9 o i } ] / & - o ; o x } } K & _ [ } } } A # T } } j - = ; 7 [ } } } } } [ ( 8 o ; ; ; ; ; ; ; ; ; ; ",
"- ; > - - ; ; @ - q } } R $ - 2 } } ) w ; ; ; - x } [ K O M } } } | y # E } } j ; = @ 7 ( } | } | } ] } j ; ; ; ; ; ; ; ; ; ; : ",
"; ; ; ; ; ; ; @ - k } } D o - X ..{ } c @ - ; * x } [ L ; 9 ] } ] ! # ; T } } j * ; @ 7 | } | } E / [ } P ; ; - ; ; ; ; ; ; ; - ",
"; ; ; ; ; ; ; - + D } ) H f f s E } } K @ @ ; - x ) } L ; = D | } b * @ E } ( g = ; ; 7 ( | [ | y V } [ | 8 ; ; ; ; ; ; ; ; ; ; ",
"; ; ; ; ; ; ; ; # ` ) } } | | | } ) } ' & + ; . x } } K = ; y | ( 8 @ # E } } h ; ; = 7 ( } | I * q } ] } l - ; ; ; ; ; ; ; ; ; ",
"; ; ; ; ; ; @ - q } ] ] ] } | } } } ) } u - ; * x } } L @ * : P S @ * : E | } g - @ ; 7 ( } ( w = O T [ ] T : - . ; ; ; ; ; ; ; ",
"; ; ; ; ; ; ; - k { } [ } } } } ) } } } c ; . * x } } L @ - - j i = * : T [ } j = ; = 1 ) ] ( 1 = = k } ] } 6 * @ ; ; ; ; ; ; ; ",
"; ; ; ; - ; + @ D | } / U I I I K _ } ] P = ; . x } } K @ @ = < $ . = # E } } j = - * 7 ( | ` & = * 8 ( ( } M o ; ; = ; ; ; ; ; ",
"; ; ; ; @ + . < ^ | } g $ : # # $ b [ [ ( 1 - * x ) } L @ o ; ; = = = @ T | } j ; - o 7 ( | ( 1 ; ; @ K { | _ # * - - ; ; ; ; ; ",
"; ; ; ; - + - w | ) } q . - @ - . t { } | t - = x ) } L @ o ; ; ; - = # E | } j = - @ 7 | ( ( 1 ; ; * f } } | r ; ; ; ; ; ; ; ; ",
"; ; ; ; ; @ - z } } _ # * @ ; ; - 1 ] } } n * . x ) } K @ @ ; = = ; = o T [ ) j ; - @ 7 ( [ ` 1 ; ; * 1 ` } } Z o - ; ; ; ; ; ; ",
"; ; ; ; ; @   K ) { G # ; @ ; ; o o T ( ] P @ o l ) { L @ @ ; ; ; ; ; # T [ } j = @ ; 7 ( [ ( 1 ; = o ; S | } _ & ; ; ; ; ; ; ; ",
"; ; ; ; ; @ ; ~ ! / l . * = ; @ ; o c / _  .7 = l ! ! F ; @ ; ; ; - @ ; Y ! _ d ; = = 1  .^ W 2 ; ; o * l / / ! u = ; ; ; ; ; ; ",
"; ; ; ; ; @ ; 8 1 8 , - = ; ; @ - - $ 7 7 7 # - $ 1 2 2 ; @ ; ; ; ; @ ; 2 2 7 : ; ; @ ; 2 2 8 @ ; + - + % 8 7 7 , ; ; ; ; ; ; ; ",
"; ; ; ; - - ; - ; ; ; ; ; - ; ; @ . ; ; o - o ; @ - ; - = ; ; ; ; ; o = - @ ; o ; @ ; ; - ; = o ; = ; - + ; @ ; ; = - @ ; ; ; ; ",
"; - ; ; @ + - @ - ; ; ; = ; ; - @ o o - * o - @ - - ; ; o - ; ; ; @ - @ - - ; - * ; - o ; - - - + ; . @ @ @ ; ; = ; - ; ; ; ; ; ",
"; : ; ; ; - ; + ; ; ; ; ; ; ; ; - ; - @ @ @ ; - ; ; - ; - ; ; ; ; ; @ - ; ; ; ; @ ; @ @ ; ; ; ; ; ; ; - o ; ; ; ; * @ ; ; ; ; ; ",
"; ; ; ; ; ; ; ; ; ; ; ; ; - ; ; ; ; ; ; ; ; ; ; ; ; ; ; ; > ; ; ; ; ; ; ; ; ; ; ; ; ; ; ; ; ; ; ; ; ; ; ; ; ; ; ; ; ; ; ; ; ; ; ",
"; ; ; ; ; ; ; ; ; ; ; ; ; : ; ; ; ; ; ; ; ; ; ; ; ; ; ; ; ; ; ; ; ; ; ; ; ; ; ; ; ; ; ; ; ; ; ; ; ; ; ; ; ; ; ; ; ; ; ; ; ; ; ; ",
"; ; ; ; ; ; ; ; ; ; ; ; ; ; ; ; ; ; ; ; ; ; ; ; ; ; ; ; ; ; ; ; ; ; ; ; ; ; ; ; ; ; ; ; ; ; ; ; ; ; ; ; ; ; ; ; ; ; ; ; - : ; ; ",
"; ; ; ; ; ; ; ; ; ; ; ; ; ; ; ; ; ; ; ; ; ; ; ; ; ; ; ; ; ; ; ; ; ; ; ; ; ; ; ; ; ; ; ; ; ; ; ; ; ; ; ; ; ; ; ; ; ; ; ; ; ; ; ; ",
"; : - ; ; ; ; - ; ; ; ; ; ; ; ; ; ; ; ; ; ; ; ; ; ; ; : ; ; ; ; ; ; - > ; ; ; ; ; ; - - ; - ; ; ; ; ; ; - ; ; ; ; ; ; ; ; ; ; ; ",
"; ; ; ; ; ; > - ; ; ; ; ; ; ; ; ; ; ; ; ; ; ; ; ; ; ; - ; ; ; ; ; ; ; ; ; ; ; ; ; ; ; > ; : ; ; ; ; ; ; : ; ; ; ; ; - - ; ; ; ; ",
"; ; ; ; ; ; ; ; ; ; ; ; ; ; ; ; ; ; ; ; ; ; ; ; ; ; ; ; ; ; ; ; ; ; ; ; ; ; ; ; ; ; ; ; ; ; ; ; ; ; ; ; ; ; ; ; ; ; ; > ; ; ; ; ",
"; ; ; ; ; ; ; ; ; ; ; ; ; ; ; ; ; ; ; ; ; ; ; ; ; ; ; ; ; ; ; ; ; ; ; ; ; ; ; ; ; ; ; ; ; ; ; ; ; ; ; ; ; ; ; ; ; ; ; ; ; ; ; ; ",
"; ; ; ; ; ; ; ; ; ; ; ; : ; ; ; ; ; > ; ; ; ; ; ; ; - ; ; ; ; ; ; ; ; ; ; ; ; ; ; ; ; ; ; ; ; ; ; ; ; ; ; ; ; ; ; ; ; ; ; ; ; ; ",
"; ; ; ; ; ; ; - ; ; ; ; - ; ; ; ; ; - - ; ; ; ; ; ; > ; ; ; ; ; ; ; ; ; ; ; : - ; ; ; ; ; ; ; ; - : ; ; ; ; ; ; ; ; ; ; ; ; ; ; ",
"; ; ; ; ; ; ; : ; > ; ; ; ; ; ; ; ; ; - ; ; ; ; ; ; ; ; ; ; ; ; ; ; ; ; ; ; ; ; ; ; ; ; ; ; ; ; ; ; ; ; ; ; ; ; ; ; ; ; : ; ; ; ",
"; ; ; ; ; ; ; ; ; - ; ; ; ; ; ; ; ; ; : ; ; ; ; ; ; ; ; ; ; ; ; ; ; ; ; ; ; ; ; ; ; ; ; ; ; ; ; ; ; ; ; ; ; ; ; ; ; ; ; - ; ; ; ",
"; ; ; ; - : ; ; ; ; ; ; ; ; ; ; - ; ; ; ; ; ; ; ; ; ; ; ; ; ; ; ; ; ; ; ; ; ; ; ; ; ; ; ; : ; ; ; ; ; ; ; - ; ; ; ; ; ; ; ; ; ; ",
"; ; ; ; ; ; ; ; ; ; ; ; ; ; ; ; : ; ; ; ; ; ; ; ; ; ; ; ; - : ; ; ; ; ; : - ; ; ; ; ; ; ; - ; ; ; ; ; ; ; > ; ; ; ; - > ; ; ; ; ",
"; ; ; ; ; ; ; ; ; ; ; ; ; ; ; ; ; ; ; ; ; ; ; ; ; ; ; ; ; ; ; ; ; ; ; ; ; ; ; ; ; ; ; ; ; ; ; ; ; ; ; ; ; ; ; ; ; ; ; ; ; ; ; ; ",
"; ; ; ; ; ; ; ; ; ; ; ; ; ; ; ; ; ; ; ; ; ; ; ; ; ; ; ; ; ; ; ; ; ; ; ; ; ; ; ; ; ; ; ; ; ; ; ; ; ; ; ; ; ; ; ; ; ; ; ; ; ; ; ; ",
"; ; ; > ; ; ; ; - - ; ; ; ; : - ; ; ; ; ; ; ; ; ; ; ; ; ; ; ; ; ; ; ; ; > ; ; ; ; ; ; ; ; ; - : ; ; ; ; ; ; ; ; ; ; ; ; ; ; ; ; ",
"; ; ; - ; ; ; ; ; > ; ; ; ; ; ; ; ; ; ; ; ; ; ; ; ; ; ; ; ; ; ; ; ; ; ; - - ; ; ; ; ; ; ; ; ; ; ; ; ; ; ; ; ; ; ; ; ; ; ; ; ; ; ",
"; ; ; ; ; ; ; ; ; ; ; ; ; ; ; ; ; ; ; ; ; ; ; @ ; ; ; ; ; ; ; ; ; ; ; ; ; ; ; - - - ; ; ; ; ; ; ; ; ; ; ; ; - : ; ; ; ; ; ; ; ; ",
"; ; ; ; ; ; ; ; ; ; ; ; ; ; ; ; ; ; ; ; ; ; ; ; - ; - ; ; ; ; ; ; ; ; ; ; ; ; > ; - > ; ; ; ; ; ; ; ; ; ; ; ; ; ; ; ; ; ; ; ; > "
};
